<svg width="630" height="344" viewBox="0 0 630 344" fill="none" xmlns="http://www.w3.org/2000/svg">
<path d="M198.005 -65C177.233 -41.9198 141.065 -35.4663 116.519 -16.7898C105.741 -8.58937 94.4303 -1.41115 84.7032 8.04578C75.6745 16.8236 64.5571 22.7332 56.2965 32.5567C41.2472 50.4531 30 66.8612 30 90.9933C30 98.0596 36.2102 108.558 41.6873 112.907C48.4912 118.31 54.3447 126.272 62.9518 128.977C67.2157 130.317 70.5818 133.55 75.2884 133.685C80.3814 133.83 84.911 133.713 89.8975 134.821C96.6457 136.32 108.171 136.229 115.058 134.821C126.933 132.392 141.507 126.05 151.581 119.075C158.2 114.493 167.427 113.13 173.17 107.388C176.629 103.929 182.119 100.768 186.318 98.2979C194.508 93.4803 199.588 84.7574 207.501 80.3611C211.226 78.2917 213.145 74.3628 217.728 72.326C222.766 70.0867 227.625 65.1655 233.148 62.7489C244.477 57.7927 254.01 48.599 265.938 45.9484C271.779 44.6503 277.518 40.8415 283.55 40.2671C294.582 39.2164 305.88 37.2641 316.989 37.2641C336.081 37.2641 354.262 34.6811 370.474 46.0296C387.324 57.8245 401.073 76.9511 401.073 97.8921C401.073 115.418 393.347 126.789 379.889 137.256C351.541 159.304 317.082 169.351 286.796 187.738C278.114 193.01 269.644 197.928 261.149 203.808C255.632 207.628 251.891 214.128 246.215 217.281C235.117 223.447 235.823 242.333 232.743 252.343C229.035 264.394 235.163 273.634 246.215 279.451C252.076 282.536 257.592 285.951 263.746 288.866C270.473 292.052 277.866 290.919 285.011 292.6C307.182 297.816 332.787 286.251 353.187 279.451C381.195 270.115 407.25 251.685 428.181 230.754C445.822 213.113 457.89 190.032 478.501 176.782C494.154 166.719 508.025 151.293 526.711 146.102C540.055 142.396 554.752 143.618 568.347 145.372C585.422 147.575 593.223 159.757 596.105 175.321C598.332 187.348 601.697 197.637 597.566 209.571C594.539 218.314 590.811 227.186 586.041 235.137C581.063 243.433 576.035 251.728 570.539 259.973C559.815 276.059 545.487 289.488 531.094 302.339C512.799 318.674 498.166 339.814 478.42 354.364C459.046 368.639 440.227 386.381 422.986 403.142C406.497 419.173 387.364 434.981 368.851 448.593C359.617 455.383 350.136 463.272 341.905 471.237C336.934 476.048 330.287 485.012 323.644 487.226" stroke="white" stroke-opacity="0.66" stroke-width="60" stroke-linecap="round"/>
</svg>
