<svg width="1920" height="752" viewBox="0 0 1920 752" fill="none" xmlns="http://www.w3.org/2000/svg">
<path d="M-791.229 547.59C-773.843 553.297 -759.77 563.574 -743.03 570.197C-700.607 586.98 -654.183 597.239 -609.873 607.204C-494.337 633.188 -367.876 639.995 -253.738 606.234C-139.397 572.414 -28.6531 495.688 44.0289 402.78C108.232 320.71 169.737 213.915 263.027 161.14C347.645 113.271 445.516 114.615 539.959 118.533C666.974 123.801 706.007 276.775 753.275 381.824C762.558 408.732 780.349 436.471 794.12 457.649C813.151 493.251 848.551 534.476 883.455 554.661C941.953 588.49 1023.39 578.741 1086.18 565.932C1150.56 552.799 1216.45 503.128 1259.53 456.347C1319.9 390.776 1369.81 314.651 1437.19 256.497C1490.81 210.223 1564.96 186.947 1633.15 173.037C1707.41 157.89 1766.93 201.88 1822.71 243.867C1901.01 302.795 1936.16 400.68 1989.87 478.627C2042.64 555.214 2099.69 603.339 2186.07 640.176C2343.47 707.298 2554.2 676.061 2700.6 597.407C2819.94 533.29 2928.5 429.201 2997.08 313.472C3025.98 264.701 3049.71 211.572 3073.96 160.388C3087.39 132.035 3096.09 101.303 3114.75 75.9295" stroke="#BAE0AC" stroke-opacity="0.7" stroke-width="150" stroke-linecap="round"/>
</svg>
