<svg width="680" height="344" viewBox="0 0 680 344" fill="none" xmlns="http://www.w3.org/2000/svg">
<path d="M577.58 -26.1787C588.109 -8.45356 601.748 8.35835 614.409 24.7042C622.648 35.3393 630.428 47.5821 634.312 60.3698C635.906 65.6185 638.143 69.4761 641.058 74.0404C644.067 78.7533 642.821 84.5072 645.498 89.3882C652.481 102.123 650.776 120.762 643.899 133.319C635.132 149.326 612.562 153.476 596.281 156.746C582.853 159.444 564.838 152.379 552.837 146.754C532.871 137.398 512.052 121.422 495.186 107.288C481.511 95.828 469.064 82.9728 455.497 71.1962C443.883 61.1154 431.093 53.0203 418.669 44.0907C396.54 28.1853 339.064 34.0672 328.11 62.2313C319.534 84.28 316.123 107.043 331.683 127.99C355.327 159.82 376.171 190.745 405.2 218.402C418.224 230.811 428.718 243.913 439.679 257.919C443.623 262.958 446.965 268.023 450.223 273.507C453.383 278.827 450.451 282.102 451.815 287.302C456.967 306.951 412.388 308.779 401.406 305.877C339.725 289.581 299.414 234.484 254.573 193.009C218.251 159.413 181.508 126.438 134.091 108.136C112.335 99.7383 50.4865 78.2919 39.9937 113.682C36.2705 126.239 30.0065 136.811 30.3386 150.226C30.6218 161.666 37.8001 174.828 43.3842 184.537C54.8676 204.503 71.1148 220.237 88.4168 235.644C115.636 259.882 143.441 283.802 171.648 306.903C206.918 335.787 242.688 365.429 274.71 397.804C291.038 414.311 296.95 426.742 303.502 448.278C305.514 454.893 305.5 471.548 303.691 478.392C301.881 485.246 250.781 481.223 246.666 481.044" stroke="white" stroke-opacity="0.66" stroke-width="60" stroke-linecap="round"/>
</svg>
