<svg width="1920" height="1139" viewBox="0 0 1920 1139" fill="none" xmlns="http://www.w3.org/2000/svg">
<path d="M-107.987 1063.62C-62.8958 938.968 9.54914 832.107 81.6761 721.438C151.734 613.944 240.267 520.354 314.411 416.645C350.42 366.277 405.419 330.504 457.042 298.812C484.899 281.709 510.709 255.195 544.96 254.617C594.766 253.776 625.777 260.473 656.311 287.528C665.825 295.959 656.107 358.894 656.311 370.94C656.91 406.45 624.368 445.376 604.627 474.46C575.951 516.708 553.679 562.833 521.334 600.482C488.682 638.489 455.073 676.268 428.72 718.823C397.003 770.041 379.158 809.333 380.19 870.48C380.468 886.908 406.474 904.516 419.799 910.9C447.335 924.092 463.865 927.456 495.218 926.927C534.291 926.267 572.404 911.19 608.226 895.825C628.974 886.925 654.331 872.714 669.454 855.865C677.7 846.679 694.434 830.167 704.345 825.001C717.644 818.069 724.78 792.154 732.783 780.189C742.711 765.345 752.116 750.021 762.302 735.358C784.65 703.187 805.793 670.859 828.797 639.084C858.847 597.574 888.717 550.966 925.093 514.734C962.257 477.717 996.235 437.456 1036.18 402.028C1081 362.286 1127.3 325.758 1173.46 287.528C1224.51 245.256 1331.3 143.947 1381.63 240.493C1407.99 291.061 1391.59 364.836 1379.72 415.962C1369.76 458.867 1347.11 496.41 1321.11 531.025C1267.07 602.979 1189.75 656.73 1127 721.633C1097.45 752.201 1031.78 832.542 1079.84 874.348C1108.58 899.351 1155.58 891.451 1190.68 890.858C1237.29 890.071 1305.07 865.453 1343.57 836.646C1407.3 788.964 1474.03 744.898 1535.26 694.197C1616.39 627.011 1690.78 546.575 1776.09 484.689C1874.36 413.396 1963.43 329.307 2060.95 257.139C2128.57 207.091 2196.95 140.64 2249.8 75" stroke="#BAE0AC" stroke-opacity="0.7" stroke-width="150" stroke-linecap="round"/>
</svg>
